<mxfile host="app.diagrams.net" modified="2020-11-30T16:08:42.357Z" agent="5.0 (Windows)" etag="QfYlpReZEsyESxeBXRwY" version="13.10.4" type="github">
  <diagram id="He2L0gwN6_XgsiDIinQj" name="Page-1">
    <mxGraphModel dx="1038" dy="547" grid="1" gridSize="10" guides="1" tooltips="1" connect="1" arrows="1" fold="1" page="1" pageScale="1" pageWidth="1169" pageHeight="827" math="0" shadow="0">
      <root>
        <mxCell id="0" />
        <mxCell id="1" parent="0" />
        <mxCell id="4ku78tlM-AvbY3TtJWE6-1" value="Pool" style="swimlane;html=1;childLayout=stackLayout;resizeParent=1;resizeParentMax=0;horizontal=1;startSize=20;horizontalStack=0;" vertex="1" parent="1">
          <mxGeometry x="10" y="10" width="1150" height="450" as="geometry" />
        </mxCell>
        <mxCell id="4ku78tlM-AvbY3TtJWE6-2" value="Lane 1" style="swimlane;html=1;startSize=20;horizontal=0;" vertex="1" parent="4ku78tlM-AvbY3TtJWE6-1">
          <mxGeometry y="20" width="1150" height="190" as="geometry" />
        </mxCell>
        <mxCell id="4ku78tlM-AvbY3TtJWE6-3" value="Lane 2" style="swimlane;html=1;startSize=20;horizontal=0;" vertex="1" parent="4ku78tlM-AvbY3TtJWE6-1">
          <mxGeometry y="210" width="1150" height="120" as="geometry" />
        </mxCell>
        <mxCell id="4ku78tlM-AvbY3TtJWE6-4" value="Lane 3" style="swimlane;html=1;startSize=20;horizontal=0;" vertex="1" parent="4ku78tlM-AvbY3TtJWE6-1">
          <mxGeometry y="330" width="1150" height="120" as="geometry" />
        </mxCell>
      </root>
    </mxGraphModel>
  </diagram>
</mxfile>
